<?xml version="1.0" encoding="utf-8"?>
<!-- Svg Vector Icons : http://www.onlinewebfonts.com/icon -->
<!DOCTYPE svg PUBLIC "-//W3C//DTD SVG 1.1//EN" "http://www.w3.org/Graphics/SVG/1.1/DTD/svg11.dtd">
<svg version="1.1" xmlns="http://www.w3.org/2000/svg" xmlns:xlink="http://www.w3.org/1999/xlink" x="0px" y="0px" viewBox="0 0 256 256" enable-background="new 0 0 256 256" xml:space="preserve">
<metadata> Svg Vector Icons : http://www.onlinewebfonts.com/icon </metadata>
<g><g><path fill="#000000" d="M234.8,247.9H122.5c-6.2,0-11.2-5-11.2-11.2c0-6.2,5-11.2,11.2-11.2h101.1V30.4H122.5c-6.2,0-11.2-5-11.2-11.2c0-6.2,5-11.2,11.2-11.2h112.3c6.2,0,11.2,4.9,11.2,11.1v217.6C246,242.9,241,247.9,234.8,247.9z"/><path fill="#000000" d="M175,116.8H48.1L91.9,73c4.4-4.4,4.4-11.4,0-15.8c-4.4-4.4-11.4-4.4-15.8,0L13.3,120c-4.4,4.4-4.4,11.4,0,15.8l62.8,62.9c2.2,2.2,5.1,3.3,7.9,3.3c2.9,0,5.7-1.1,7.9-3.3c4.4-4.4,4.4-11.4,0-15.8l-43.6-43.7H175c6.2,0,11.2-5,11.2-11.2C186.2,121.8,181.2,116.8,175,116.8z"/></g></g>
</svg>